<svg width="445" height="435" viewBox="0 0 445 435" fill="none" xmlns="http://www.w3.org/2000/svg">
<g clip-path="url(#clip0_159_385)">
<path d="M401.229 226.381C401.287 280.208 382.749 331.963 349.511 370.768C347.507 373.123 345.449 375.421 343.337 377.662C340.12 381.097 336.794 384.399 333.36 387.568C301.237 417.27 261.134 433.96 219.522 434.947C218.136 434.982 216.744 435 215.347 435C182.161 435 140.42 415.106 102.541 387.568C99.4066 385.289 96.3006 382.958 93.2224 380.574C91.7836 379.47 90.3518 378.351 88.927 377.216C74.3173 365.638 60.4499 352.924 47.4269 339.166C38.9002 330.186 30.9045 320.59 23.4906 310.442C-5.61496 270.149 -12.0346 233.844 29.4603 226.381C34.3731 225.5 39.1412 224.559 43.7645 223.557C50.4615 222.112 56.8706 220.552 62.992 218.877C71.2376 216.628 78.9845 214.189 86.2325 211.561C88.6706 210.68 91.0529 209.781 93.3794 208.865C127.774 195.307 150.795 177.627 166.465 158.444C169.123 155.197 171.573 151.911 173.816 148.586C177.247 143.524 180.364 138.203 183.145 132.661C186.982 124.961 190.205 116.895 192.777 108.557L192.918 108.099C205.386 67.7368 201.592 30.2982 215.347 17.7678C274.144 -35.8006 347.345 40.4858 381.703 130.448C383.435 134.981 385.064 139.541 386.59 144.129C387.276 146.178 387.937 148.231 388.573 150.288C390.247 155.649 391.766 161.024 393.13 166.412C393.653 168.467 394.152 170.521 394.626 172.572C395.134 174.785 395.621 176.993 396.07 179.201C399.414 195.366 401.229 211.308 401.229 226.381Z" fill="#F2F2F2" fill-opacity="0.4"/>
<path d="M219.523 434.947C218.136 434.982 216.745 435 215.348 435C182.161 435 140.42 415.106 102.541 387.568C99.4069 385.289 96.3008 382.958 93.2227 380.574L95.9224 362.137L177.651 349.959L218.67 385.16L219.523 434.947Z" fill="#2F2E41"/>
<path d="M223.457 105.721H211.81C211.45 105.722 211.104 105.883 210.849 106.169C210.594 106.455 210.45 106.843 210.45 107.248V120.325C210.45 120.525 210.486 120.723 210.554 120.908C210.623 121.092 210.723 121.26 210.849 121.402C210.976 121.543 211.126 121.655 211.29 121.731C211.455 121.807 211.632 121.846 211.81 121.845H223.457C223.817 121.846 224.162 121.686 224.417 121.4C224.672 121.115 224.816 120.728 224.817 120.325V107.248C224.816 106.844 224.672 106.456 224.418 106.17C224.163 105.884 223.817 105.723 223.457 105.721Z" fill="white"/>
<path d="M223.457 128.005H211.81C211.45 128.005 211.104 128.166 210.849 128.452C210.594 128.739 210.45 129.127 210.45 129.532V142.608C210.45 142.808 210.486 143.006 210.554 143.191C210.623 143.376 210.723 143.544 210.849 143.685C210.976 143.826 211.126 143.938 211.29 144.014C211.455 144.091 211.632 144.129 211.81 144.129H223.457C223.817 144.129 224.162 143.969 224.417 143.684C224.672 143.399 224.816 143.012 224.817 142.608V129.532C224.816 129.127 224.672 128.739 224.418 128.453C224.163 128.167 223.817 128.006 223.457 128.005Z" fill="#E6E6E6"/>
<path d="M223.457 150.288H211.81C211.45 150.289 211.104 150.449 210.849 150.736C210.594 151.022 210.45 151.41 210.45 151.815V164.886C210.45 165.086 210.485 165.285 210.553 165.47C210.621 165.656 210.721 165.824 210.848 165.966C210.974 166.108 211.124 166.22 211.289 166.297C211.455 166.373 211.632 166.413 211.81 166.412H223.457C223.818 166.412 224.163 166.251 224.419 165.965C224.674 165.679 224.817 165.291 224.817 164.886V151.815C224.816 151.411 224.672 151.023 224.418 150.737C224.163 150.451 223.817 150.29 223.457 150.288Z" fill="#E6E6E6"/>
<path d="M224.796 173.828C224.738 173.477 224.573 173.159 224.328 172.929C224.084 172.7 223.775 172.574 223.457 172.572H211.81C211.45 172.572 211.104 172.733 210.849 173.019C210.594 173.305 210.45 173.694 210.45 174.099V187.169C210.45 187.37 210.485 187.568 210.553 187.754C210.621 187.939 210.721 188.108 210.848 188.25C210.974 188.391 211.124 188.504 211.289 188.58C211.455 188.657 211.632 188.696 211.81 188.696H223.457C223.818 188.696 224.163 188.535 224.419 188.248C224.674 187.962 224.817 187.574 224.817 187.169V174.099C224.818 174.008 224.811 173.917 224.796 173.828Z" fill="#E6E6E6"/>
<path d="M223.985 194.973C223.818 194.895 223.638 194.855 223.457 194.855H211.81C211.632 194.855 211.455 194.894 211.289 194.971C211.124 195.047 210.974 195.16 210.848 195.302C210.721 195.443 210.621 195.612 210.553 195.797C210.485 195.983 210.45 196.181 210.45 196.382V209.453C210.449 209.653 210.484 209.852 210.552 210.038C210.62 210.224 210.72 210.392 210.847 210.534C210.973 210.676 211.124 210.788 211.289 210.865C211.454 210.941 211.632 210.98 211.81 210.979H223.457C223.818 210.979 224.163 210.818 224.419 210.532C224.674 210.246 224.817 209.857 224.817 209.453V196.382C224.817 196.082 224.737 195.788 224.589 195.537C224.442 195.287 224.232 195.091 223.985 194.973Z" fill="#E6E6E6"/>
<path d="M247.922 105.721H236.275C235.915 105.722 235.569 105.883 235.314 106.169C235.059 106.455 234.915 106.843 234.915 107.248V120.325C234.915 120.525 234.951 120.723 235.019 120.908C235.088 121.092 235.188 121.26 235.314 121.402C235.44 121.543 235.59 121.655 235.755 121.731C235.92 121.807 236.097 121.846 236.275 121.845H247.922C248.282 121.846 248.627 121.686 248.882 121.4C249.137 121.115 249.281 120.728 249.282 120.325V107.248C249.281 106.844 249.137 106.456 248.882 106.17C248.628 105.884 248.282 105.723 247.922 105.721Z" fill="#E6E6E6"/>
<path d="M247.922 128.005H236.275C235.915 128.005 235.569 128.166 235.314 128.452C235.059 128.739 234.915 129.127 234.915 129.532V142.608C234.915 142.808 234.951 143.006 235.019 143.191C235.088 143.376 235.188 143.544 235.314 143.685C235.44 143.826 235.59 143.938 235.755 144.014C235.92 144.091 236.097 144.129 236.275 144.129H247.922C248.282 144.129 248.627 143.969 248.882 143.684C249.137 143.399 249.281 143.012 249.282 142.608V129.532C249.281 129.127 249.137 128.739 248.882 128.453C248.628 128.167 248.282 128.006 247.922 128.005Z" fill="#5D71D3"/>
<path d="M247.922 150.288H236.275C235.915 150.289 235.569 150.449 235.314 150.736C235.059 151.022 234.915 151.41 234.915 151.815V164.886C234.915 165.086 234.95 165.285 235.018 165.47C235.086 165.656 235.186 165.824 235.313 165.966C235.439 166.108 235.589 166.22 235.754 166.297C235.92 166.373 236.097 166.413 236.275 166.412H247.922C248.282 166.412 248.628 166.251 248.883 165.965C249.138 165.679 249.282 165.291 249.282 164.886V151.815C249.281 151.411 249.137 151.023 248.882 150.737C248.628 150.451 248.282 150.29 247.922 150.288Z" fill="#5D71D3"/>
<path d="M247.922 172.572H236.275C235.99 172.572 235.712 172.673 235.481 172.861C235.25 173.048 235.078 173.313 234.988 173.617C234.94 173.772 234.915 173.934 234.915 174.098V187.169C234.915 187.37 234.95 187.568 235.018 187.754C235.086 187.939 235.186 188.108 235.313 188.249C235.439 188.391 235.589 188.504 235.754 188.58C235.919 188.657 236.097 188.696 236.275 188.696H247.922C248.282 188.696 248.628 188.535 248.883 188.248C249.138 187.962 249.282 187.574 249.282 187.169V174.098C249.281 173.694 249.137 173.306 248.882 173.02C248.628 172.734 248.282 172.573 247.922 172.572Z" fill="#5D71D3"/>
<path d="M247.922 194.855H236.275C236.097 194.855 235.92 194.894 235.754 194.971C235.589 195.047 235.439 195.16 235.313 195.302C235.186 195.443 235.086 195.612 235.018 195.797C234.95 195.983 234.915 196.181 234.915 196.382V209.453C234.915 209.653 234.95 209.852 235.018 210.037C235.086 210.223 235.186 210.391 235.313 210.533C235.439 210.675 235.589 210.787 235.754 210.864C235.92 210.94 236.097 210.98 236.275 210.979H247.922C248.282 210.979 248.628 210.818 248.883 210.532C249.138 210.246 249.282 209.857 249.282 209.453V196.382C249.282 195.977 249.138 195.589 248.883 195.303C248.628 195.016 248.282 194.855 247.922 194.855Z" fill="#E6E6E6"/>
<path d="M272.387 105.721H260.74C260.379 105.722 260.034 105.883 259.778 106.169C259.523 106.455 259.38 106.843 259.38 107.248V120.325C259.38 120.525 259.415 120.723 259.484 120.908C259.552 121.092 259.653 121.26 259.779 121.402C259.905 121.543 260.055 121.655 260.22 121.731C260.385 121.807 260.562 121.846 260.74 121.845H272.387C272.746 121.846 273.092 121.686 273.347 121.4C273.602 121.115 273.746 120.728 273.747 120.325V107.248C273.746 106.844 273.602 106.456 273.347 106.17C273.092 105.884 272.747 105.723 272.387 105.721Z" fill="#5D71D3"/>
<path d="M272.387 128.005H260.74C260.379 128.005 260.034 128.166 259.778 128.452C259.523 128.739 259.38 129.127 259.38 129.532V142.608C259.38 142.808 259.415 143.006 259.484 143.191C259.552 143.376 259.653 143.544 259.779 143.685C259.905 143.826 260.055 143.938 260.22 144.014C260.385 144.091 260.562 144.129 260.74 144.129H272.387C272.746 144.129 273.092 143.969 273.347 143.684C273.602 143.399 273.746 143.012 273.747 142.608V129.532C273.746 129.127 273.602 128.739 273.347 128.453C273.092 128.167 272.747 128.006 272.387 128.005Z" fill="#5D71D3"/>
<path d="M272.387 150.288H260.74C260.379 150.289 260.034 150.449 259.778 150.736C259.523 151.022 259.38 151.41 259.38 151.815V164.886C259.38 165.086 259.414 165.285 259.483 165.47C259.551 165.656 259.651 165.824 259.777 165.966C259.904 166.108 260.054 166.22 260.219 166.297C260.384 166.373 260.561 166.413 260.74 166.412H272.387C272.747 166.412 273.093 166.251 273.348 165.965C273.603 165.679 273.747 165.291 273.747 164.886V151.815C273.746 151.411 273.602 151.023 273.347 150.737C273.092 150.451 272.747 150.29 272.387 150.288Z" fill="#E6E6E6"/>
<path d="M272.387 172.572H260.74C260.379 172.572 260.034 172.733 259.778 173.019C259.523 173.305 259.38 173.694 259.38 174.099V187.169C259.38 187.37 259.414 187.568 259.483 187.754C259.551 187.939 259.651 188.108 259.777 188.25C259.904 188.391 260.054 188.504 260.219 188.58C260.384 188.657 260.561 188.696 260.74 188.696H272.387C272.747 188.696 273.093 188.535 273.348 188.248C273.603 187.962 273.747 187.574 273.747 187.169V174.099C273.746 173.694 273.602 173.306 273.347 173.02C273.092 172.734 272.747 172.573 272.387 172.572Z" fill="#5D71D3"/>
<path d="M272.387 194.855H260.74C260.561 194.855 260.384 194.894 260.219 194.971C260.054 195.047 259.904 195.16 259.777 195.302C259.651 195.443 259.551 195.612 259.483 195.797C259.414 195.983 259.38 196.181 259.38 196.382V209.453C259.38 209.653 259.414 209.852 259.483 210.037C259.551 210.223 259.651 210.391 259.777 210.533C259.904 210.675 260.054 210.787 260.219 210.864C260.384 210.94 260.561 210.98 260.74 210.979H272.387C272.747 210.979 273.093 210.818 273.348 210.532C273.603 210.246 273.747 209.857 273.747 209.453V196.382C273.747 195.977 273.603 195.589 273.348 195.303C273.093 195.016 272.747 194.855 272.387 194.855Z" fill="#5D71D3"/>
<path d="M296.851 105.721H285.205C284.844 105.722 284.498 105.883 284.243 106.169C283.988 106.455 283.844 106.843 283.844 107.248V120.325C283.844 120.525 283.88 120.723 283.948 120.908C284.017 121.092 284.117 121.26 284.243 121.402C284.37 121.543 284.52 121.655 284.685 121.731C284.849 121.807 285.026 121.846 285.205 121.845H296.851C297.211 121.846 297.556 121.686 297.811 121.4C298.066 121.115 298.21 120.728 298.211 120.325V107.248C298.21 106.844 298.067 106.456 297.812 106.17C297.557 105.884 297.211 105.723 296.851 105.721Z" fill="#5D71D3"/>
<path d="M296.851 128.005H285.205C284.844 128.005 284.498 128.166 284.243 128.452C283.988 128.739 283.844 129.127 283.844 129.532V142.608C283.844 142.808 283.88 143.006 283.948 143.191C284.017 143.376 284.117 143.544 284.243 143.685C284.37 143.826 284.52 143.938 284.685 144.014C284.849 144.091 285.026 144.129 285.205 144.129H296.851C297.211 144.129 297.556 143.969 297.811 143.684C298.066 143.399 298.21 143.012 298.211 142.608V129.532C298.21 129.127 298.067 128.739 297.812 128.453C297.557 128.167 297.211 128.006 296.851 128.005Z" fill="white"/>
<path d="M296.851 150.288H285.205C284.844 150.289 284.498 150.449 284.243 150.736C283.988 151.022 283.844 151.41 283.844 151.815V164.886C283.844 165.086 283.879 165.285 283.947 165.47C284.015 165.656 284.115 165.824 284.242 165.966C284.368 166.108 284.518 166.22 284.684 166.297C284.849 166.373 285.026 166.413 285.205 166.412H296.851C297.212 166.412 297.558 166.251 297.813 165.965C298.068 165.679 298.211 165.291 298.211 164.886V151.815C298.21 151.411 298.067 151.023 297.812 150.737C297.557 150.451 297.211 150.29 296.851 150.288Z" fill="white"/>
<path d="M296.851 172.572H285.205C284.844 172.572 284.498 172.733 284.243 173.019C283.988 173.305 283.844 173.694 283.844 174.099V187.169C283.844 187.37 283.879 187.568 283.947 187.754C284.015 187.939 284.115 188.108 284.242 188.25C284.368 188.391 284.518 188.504 284.684 188.58C284.849 188.657 285.026 188.696 285.205 188.696H296.851C297.212 188.696 297.558 188.535 297.813 188.248C298.068 187.962 298.211 187.574 298.211 187.169V174.099C298.21 173.694 298.067 173.306 297.812 173.02C297.557 172.734 297.211 172.573 296.851 172.572Z" fill="#E6E6E6"/>
<path d="M296.851 194.855H285.205C285.026 194.855 284.849 194.894 284.684 194.971C284.518 195.047 284.368 195.16 284.242 195.302C284.115 195.443 284.015 195.612 283.947 195.797C283.879 195.983 283.844 196.181 283.844 196.382V209.453C283.844 209.653 283.879 209.852 283.947 210.037C284.015 210.223 284.115 210.391 284.242 210.533C284.368 210.675 284.518 210.787 284.684 210.864C284.849 210.94 285.026 210.98 285.205 210.979H296.851C297.212 210.979 297.558 210.818 297.813 210.532C298.068 210.246 298.211 209.857 298.211 209.453V196.382C298.211 195.977 298.068 195.589 297.813 195.303C297.558 195.016 297.212 194.855 296.851 194.855Z" fill="#5D71D3"/>
<path d="M321.316 105.721H309.664C309.304 105.723 308.96 105.884 308.706 106.17C308.452 106.457 308.309 106.844 308.309 107.248V120.325C308.309 120.728 308.452 121.115 308.706 121.4C308.96 121.685 309.305 121.845 309.664 121.845H321.316C321.676 121.846 322.021 121.686 322.276 121.4C322.531 121.115 322.675 120.728 322.676 120.325V107.248C322.675 106.844 322.531 106.456 322.277 106.17C322.022 105.884 321.676 105.723 321.316 105.721Z" fill="white"/>
<path d="M321.316 128.005H309.664C309.304 128.006 308.96 128.168 308.706 128.454C308.451 128.74 308.309 129.128 308.309 129.532V142.608C308.309 143.011 308.452 143.398 308.706 143.683C308.96 143.969 309.305 144.129 309.664 144.129H321.316C321.676 144.129 322.021 143.969 322.276 143.684C322.531 143.399 322.675 143.012 322.676 142.608V129.532C322.675 129.127 322.531 128.739 322.277 128.453C322.022 128.167 321.676 128.006 321.316 128.005Z" fill="white"/>
<path d="M321.316 150.288H309.664C309.304 150.29 308.96 150.451 308.706 150.737C308.452 151.024 308.309 151.411 308.309 151.815V164.886C308.309 165.086 308.343 165.284 308.411 165.469C308.479 165.654 308.579 165.823 308.705 165.964C308.83 166.106 308.98 166.219 309.145 166.296C309.309 166.372 309.486 166.412 309.664 166.412H321.316C321.677 166.412 322.022 166.251 322.278 165.965C322.533 165.679 322.676 165.291 322.676 164.886V151.815C322.675 151.411 322.531 151.023 322.277 150.737C322.022 150.451 321.676 150.29 321.316 150.288Z" fill="white"/>
<path d="M321.316 172.572H309.664C309.304 172.573 308.96 172.735 308.706 173.021C308.452 173.307 308.309 173.695 308.309 174.099V187.169C308.309 187.369 308.343 187.568 308.411 187.753C308.479 187.938 308.579 188.106 308.705 188.248C308.83 188.39 308.98 188.502 309.145 188.579C309.309 188.656 309.486 188.696 309.664 188.696H321.316C321.677 188.696 322.022 188.535 322.278 188.248C322.533 187.962 322.676 187.574 322.676 187.169V174.099C322.675 173.694 322.531 173.306 322.277 173.02C322.022 172.734 321.676 172.573 321.316 172.572Z" fill="#5D71D3"/>
<path d="M321.316 194.855H309.664C309.486 194.856 309.309 194.895 309.145 194.972C308.98 195.049 308.83 195.161 308.705 195.303C308.579 195.445 308.479 195.613 308.411 195.798C308.343 195.984 308.309 196.182 308.309 196.382V209.453C308.309 209.653 308.343 209.851 308.411 210.036C308.479 210.221 308.579 210.389 308.705 210.531C308.83 210.673 308.98 210.786 309.145 210.863C309.309 210.939 309.486 210.979 309.664 210.979H321.316C321.677 210.979 322.022 210.818 322.278 210.532C322.533 210.246 322.676 209.857 322.676 209.453V196.382C322.676 195.977 322.533 195.589 322.278 195.303C322.022 195.016 321.677 194.855 321.316 194.855Z" fill="#E6E6E6"/>
<path d="M345.781 105.721H334.129C333.769 105.723 333.424 105.884 333.17 106.17C332.916 106.457 332.774 106.844 332.774 107.248V120.325C332.774 120.728 332.917 121.115 333.171 121.4C333.425 121.685 333.77 121.845 334.129 121.845H345.781C346.141 121.846 346.486 121.686 346.741 121.4C346.996 121.115 347.14 120.728 347.141 120.325V107.248C347.14 106.844 346.996 106.456 346.741 106.17C346.486 105.884 346.141 105.723 345.781 105.721Z" fill="white"/>
<path d="M345.781 128.005H334.129C333.769 128.006 333.424 128.168 333.17 128.454C332.916 128.74 332.774 129.128 332.774 129.532V142.608C332.774 143.011 332.917 143.398 333.171 143.683C333.425 143.969 333.77 144.129 334.129 144.129H345.781C346.141 144.129 346.486 143.969 346.741 143.684C346.996 143.399 347.14 143.012 347.141 142.608V129.532C347.14 129.127 346.996 128.739 346.741 128.453C346.486 128.167 346.141 128.006 345.781 128.005Z" fill="white"/>
<path d="M345.781 150.288H334.129C333.769 150.29 333.424 150.451 333.17 150.737C332.916 151.024 332.774 151.411 332.774 151.815V164.886C332.773 165.086 332.808 165.284 332.876 165.469C332.944 165.654 333.044 165.823 333.169 165.964C333.295 166.106 333.445 166.219 333.609 166.296C333.774 166.372 333.951 166.412 334.129 166.412H345.781C346.141 166.412 346.487 166.251 346.742 165.965C346.997 165.679 347.141 165.291 347.141 164.886V151.815C347.14 151.411 346.996 151.023 346.741 150.737C346.486 150.451 346.141 150.29 345.781 150.288Z" fill="#5D71D3"/>
<path d="M345.781 172.572H334.129C333.769 172.573 333.424 172.735 333.17 173.021C332.916 173.307 332.774 173.695 332.774 174.099V187.169C332.773 187.369 332.808 187.568 332.876 187.753C332.944 187.938 333.044 188.106 333.169 188.248C333.295 188.39 333.445 188.502 333.609 188.579C333.774 188.656 333.951 188.696 334.129 188.696H345.781C346.141 188.696 346.487 188.535 346.742 188.248C346.997 187.962 347.141 187.574 347.141 187.169V174.099C347.14 173.694 346.996 173.306 346.741 173.02C346.486 172.734 346.141 172.573 345.781 172.572Z" fill="#E6E6E6"/>
<path d="M345.781 194.855H334.129C333.951 194.856 333.774 194.895 333.609 194.972C333.445 195.049 333.295 195.161 333.169 195.303C333.044 195.445 332.944 195.613 332.876 195.798C332.808 195.984 332.773 196.182 332.774 196.382V209.453C332.773 209.653 332.808 209.851 332.876 210.036C332.944 210.221 333.044 210.389 333.169 210.531C333.295 210.673 333.445 210.786 333.609 210.863C333.774 210.939 333.951 210.979 334.129 210.979H345.781C346.141 210.979 346.487 210.818 346.742 210.532C346.997 210.246 347.141 209.857 347.141 209.453V196.382C347.141 195.977 346.997 195.589 346.742 195.303C346.487 195.016 346.141 194.855 345.781 194.855Z" fill="white"/>
<path d="M370.245 105.721H358.594C358.234 105.723 357.889 105.884 357.635 106.17C357.381 106.457 357.239 106.844 357.239 107.248V120.325C357.239 120.728 357.382 121.115 357.636 121.4C357.89 121.685 358.234 121.845 358.594 121.845H370.245C370.605 121.846 370.951 121.686 371.206 121.4C371.461 121.115 371.605 120.728 371.606 120.325V107.248C371.605 106.844 371.461 106.456 371.206 106.17C370.951 105.884 370.606 105.723 370.245 105.721Z" fill="#5D71D3"/>
<path d="M370.245 128.005H358.594C358.234 128.006 357.889 128.168 357.635 128.454C357.381 128.74 357.239 129.128 357.239 129.532V142.608C357.239 143.011 357.382 143.398 357.636 143.683C357.89 143.969 358.234 144.129 358.594 144.129H370.245C370.605 144.129 370.951 143.969 371.206 143.684C371.461 143.399 371.605 143.012 371.606 142.608V129.532C371.605 129.127 371.461 128.739 371.206 128.453C370.951 128.167 370.606 128.006 370.245 128.005Z" fill="#5D71D3"/>
<path d="M370.245 150.288H358.594C358.234 150.29 357.889 150.451 357.635 150.737C357.381 151.024 357.239 151.411 357.239 151.815V164.886C357.238 165.086 357.273 165.284 357.341 165.469C357.409 165.654 357.508 165.823 357.634 165.964C357.76 166.106 357.91 166.219 358.074 166.296C358.239 166.372 358.416 166.412 358.594 166.412H370.245C370.606 166.412 370.952 166.251 371.207 165.965C371.462 165.679 371.606 165.291 371.606 164.886V151.815C371.605 151.411 371.461 151.023 371.206 150.737C370.951 150.451 370.606 150.29 370.245 150.288Z" fill="#E6E6E6"/>
<path d="M370.245 172.572H358.594C358.234 172.573 357.889 172.735 357.635 173.021C357.381 173.307 357.239 173.695 357.239 174.099V187.169C357.238 187.369 357.273 187.568 357.341 187.753C357.409 187.938 357.508 188.106 357.634 188.248C357.76 188.39 357.91 188.502 358.074 188.579C358.239 188.656 358.416 188.696 358.594 188.696H370.245C370.606 188.696 370.952 188.535 371.207 188.248C371.462 187.962 371.606 187.574 371.606 187.169V174.099C371.605 173.694 371.461 173.306 371.206 173.02C370.951 172.734 370.606 172.573 370.245 172.572Z" fill="white"/>
<path d="M370.245 194.855H358.594C358.416 194.856 358.239 194.895 358.074 194.972C357.91 195.049 357.76 195.161 357.634 195.303C357.508 195.445 357.409 195.613 357.341 195.798C357.273 195.984 357.238 196.182 357.239 196.382V209.453C357.238 209.653 357.273 209.851 357.341 210.036C357.409 210.221 357.508 210.389 357.634 210.531C357.76 210.673 357.91 210.786 358.074 210.863C358.239 210.939 358.416 210.979 358.594 210.979H370.245C370.606 210.979 370.952 210.818 371.207 210.532C371.462 210.246 371.606 209.857 371.606 209.453V196.382C371.606 195.977 371.462 195.589 371.207 195.303C370.952 195.016 370.606 194.855 370.245 194.855Z" fill="#5D71D3"/>
<path d="M394.71 105.721H383.059C382.699 105.723 382.354 105.884 382.1 106.17C381.846 106.457 381.703 106.844 381.704 107.248V120.325C381.704 120.728 381.846 121.115 382.101 121.4C382.355 121.685 382.699 121.845 383.059 121.845H394.71C395.07 121.846 395.416 121.686 395.671 121.4C395.926 121.115 396.069 120.728 396.071 120.325V107.248C396.07 106.844 395.926 106.456 395.671 106.17C395.416 105.884 395.071 105.723 394.71 105.721Z" fill="#5D71D3"/>
<path d="M394.71 128.005H383.059C382.699 128.006 382.354 128.168 382.1 128.454C381.846 128.74 381.703 129.128 381.704 129.532V142.608C381.704 143.011 381.846 143.398 382.101 143.683C382.355 143.969 382.699 144.129 383.059 144.129H394.71C395.07 144.129 395.416 143.969 395.671 143.684C395.926 143.399 396.069 143.012 396.071 142.608V129.532C396.07 129.127 395.926 128.739 395.671 128.453C395.416 128.167 395.071 128.006 394.71 128.005Z" fill="#5D71D3"/>
<path d="M394.71 150.288H383.059C382.699 150.29 382.354 150.451 382.1 150.737C381.846 151.024 381.703 151.411 381.704 151.815V164.886C381.703 165.086 381.738 165.284 381.806 165.469C381.874 165.654 381.973 165.823 382.099 165.964C382.225 166.106 382.374 166.219 382.539 166.296C382.704 166.372 382.88 166.412 383.059 166.412H394.71C395.071 166.412 395.417 166.251 395.672 165.965C395.927 165.679 396.07 165.291 396.071 164.886V151.815C396.07 151.411 395.926 151.023 395.671 150.737C395.416 150.451 395.071 150.29 394.71 150.288Z" fill="#E6E6E6"/>
<path d="M394.71 172.572H383.059C382.699 172.573 382.354 172.735 382.1 173.021C381.846 173.307 381.703 173.695 381.704 174.099V187.169C381.703 187.369 381.738 187.568 381.806 187.753C381.874 187.938 381.973 188.106 382.099 188.248C382.225 188.39 382.374 188.502 382.539 188.579C382.704 188.656 382.88 188.696 383.059 188.696H394.71C395.071 188.696 395.417 188.535 395.672 188.248C395.927 187.962 396.07 187.574 396.071 187.169V174.099C396.07 173.694 395.926 173.306 395.671 173.02C395.416 172.734 395.071 172.573 394.71 172.572Z" fill="#5D71D3"/>
<path d="M394.71 194.855H383.059C382.88 194.856 382.704 194.895 382.539 194.972C382.374 195.049 382.225 195.161 382.099 195.303C381.973 195.445 381.874 195.613 381.806 195.798C381.738 195.984 381.703 196.182 381.704 196.382V209.453C381.703 209.653 381.738 209.851 381.806 210.036C381.874 210.221 381.973 210.389 382.099 210.531C382.225 210.673 382.374 210.786 382.539 210.863C382.704 210.939 382.88 210.979 383.059 210.979H394.71C395.071 210.979 395.417 210.818 395.672 210.532C395.927 210.246 396.07 209.857 396.071 209.453V196.382C396.07 195.977 395.927 195.589 395.672 195.303C395.417 195.016 395.071 194.855 394.71 194.855Z" fill="#5D71D3"/>
<path d="M419.175 105.721H407.524C407.164 105.723 406.819 105.884 406.565 106.17C406.311 106.457 406.168 106.844 406.168 107.248V120.325C406.169 120.728 406.311 121.115 406.565 121.4C406.82 121.685 407.164 121.845 407.524 121.845H419.175C419.535 121.846 419.88 121.686 420.135 121.4C420.39 121.115 420.534 120.728 420.535 120.325V107.248C420.534 106.844 420.391 106.456 420.136 106.17C419.881 105.884 419.536 105.723 419.175 105.721Z" fill="#E6E6E6"/>
<path d="M419.175 128.005H407.524C407.164 128.006 406.819 128.168 406.565 128.454C406.311 128.74 406.168 129.128 406.168 129.532V142.608C406.169 143.011 406.311 143.398 406.565 143.683C406.82 143.969 407.164 144.129 407.524 144.129H419.175C419.535 144.129 419.88 143.969 420.135 143.684C420.39 143.399 420.534 143.012 420.535 142.608V129.532C420.534 129.127 420.391 128.739 420.136 128.453C419.881 128.167 419.536 128.006 419.175 128.005Z" fill="#5D71D3"/>
<path d="M419.175 150.288H407.524C407.164 150.29 406.819 150.451 406.565 150.737C406.311 151.024 406.168 151.411 406.168 151.815V164.886C406.168 165.086 406.203 165.284 406.27 165.469C406.338 165.654 406.438 165.823 406.564 165.964C406.69 166.106 406.839 166.219 407.004 166.296C407.169 166.372 407.345 166.412 407.524 166.412H419.175C419.536 166.412 419.882 166.251 420.137 165.965C420.392 165.679 420.535 165.291 420.535 164.886V151.815C420.534 151.411 420.391 151.023 420.136 150.737C419.881 150.451 419.536 150.29 419.175 150.288Z" fill="#5D71D3"/>
<path d="M419.175 172.572H407.524C407.164 172.573 406.819 172.735 406.565 173.021C406.311 173.307 406.168 173.695 406.168 174.099V187.169C406.168 187.369 406.203 187.568 406.27 187.753C406.338 187.938 406.438 188.106 406.564 188.248C406.69 188.39 406.839 188.502 407.004 188.579C407.169 188.656 407.345 188.696 407.524 188.696H419.175C419.536 188.696 419.882 188.535 420.137 188.248C420.392 187.962 420.535 187.574 420.535 187.169V174.099C420.534 173.694 420.391 173.306 420.136 173.02C419.881 172.734 419.536 172.573 419.175 172.572Z" fill="#5D71D3"/>
<path d="M419.175 194.855H407.524C407.345 194.856 407.169 194.895 407.004 194.972C406.839 195.049 406.69 195.161 406.564 195.303C406.438 195.445 406.338 195.613 406.27 195.798C406.203 195.984 406.168 196.182 406.168 196.382V209.453C406.168 209.653 406.203 209.851 406.27 210.036C406.338 210.221 406.438 210.389 406.564 210.531C406.69 210.673 406.839 210.786 407.004 210.863C407.169 210.939 407.345 210.979 407.524 210.979H419.175C419.536 210.979 419.882 210.818 420.137 210.532C420.392 210.246 420.535 209.857 420.535 209.453V196.382C420.535 195.977 420.392 195.589 420.137 195.303C419.882 195.016 419.536 194.855 419.175 194.855Z" fill="#E6E6E6"/>
<path d="M443.64 105.721H431.988C431.628 105.723 431.283 105.884 431.029 106.17C430.775 106.457 430.633 106.844 430.633 107.248V120.325C430.633 120.728 430.776 121.115 431.03 121.4C431.284 121.685 431.629 121.845 431.988 121.845H443.64C443.999 121.846 444.345 121.686 444.6 121.4C444.855 121.115 444.999 120.728 445 120.325V107.248C444.999 106.844 444.855 106.456 444.6 106.17C444.345 105.884 444 105.723 443.64 105.721Z" fill="#E6E6E6"/>
<path d="M443.64 128.005H431.988C431.628 128.006 431.283 128.168 431.029 128.454C430.775 128.74 430.633 129.128 430.633 129.532V142.608C430.633 143.011 430.776 143.398 431.03 143.683C431.284 143.969 431.629 144.129 431.988 144.129H443.64C443.999 144.129 444.345 143.969 444.6 143.684C444.855 143.399 444.999 143.012 445 142.608V129.532C444.999 129.127 444.855 128.739 444.6 128.453C444.345 128.167 444 128.006 443.64 128.005Z" fill="#E6E6E6"/>
<path d="M443.64 150.288H431.988C431.628 150.29 431.283 150.451 431.029 150.737C430.775 151.024 430.633 151.411 430.633 151.815V164.886C430.632 165.086 430.667 165.284 430.735 165.469C430.803 165.654 430.902 165.823 431.028 165.964C431.154 166.106 431.304 166.219 431.468 166.296C431.633 166.372 431.81 166.412 431.988 166.412H443.64C444 166.412 444.346 166.251 444.601 165.965C444.856 165.679 445 165.291 445 164.886V151.815C444.999 151.411 444.855 151.023 444.6 150.737C444.345 150.451 444 150.29 443.64 150.288Z" fill="#5D71D3"/>
<path d="M443.64 172.572H431.988C431.628 172.573 431.283 172.735 431.029 173.021C430.775 173.307 430.633 173.695 430.633 174.099V187.169C430.632 187.369 430.667 187.568 430.735 187.753C430.803 187.938 430.902 188.106 431.028 188.248C431.154 188.39 431.304 188.502 431.468 188.579C431.633 188.656 431.81 188.696 431.988 188.696H443.64C444 188.696 444.346 188.535 444.601 188.248C444.856 187.962 445 187.574 445 187.169V174.099C444.999 173.694 444.855 173.306 444.6 173.02C444.345 172.734 444 172.573 443.64 172.572Z" fill="#E6E6E6"/>
<path d="M443.64 194.855H431.988C431.81 194.856 431.633 194.895 431.468 194.972C431.304 195.049 431.154 195.161 431.028 195.303C430.902 195.445 430.803 195.613 430.735 195.798C430.667 195.984 430.632 196.182 430.633 196.382V209.453C430.632 209.653 430.667 209.851 430.735 210.036C430.803 210.221 430.902 210.389 431.028 210.531C431.154 210.673 431.304 210.786 431.468 210.863C431.633 210.939 431.81 210.979 431.988 210.979H443.64C444 210.979 444.346 210.818 444.601 210.532C444.856 210.246 445 209.857 445 209.453V196.382C445 195.977 444.856 195.589 444.601 195.303C444.346 195.016 444 194.855 443.64 194.855Z" fill="#E6E6E6"/>
<path d="M175.845 387.569H175.52L175.798 387.527L175.845 387.569Z" fill="#2F2E41"/>
<path d="M147.968 143.891C167.71 143.891 183.714 125.93 183.714 103.774C183.714 81.6178 167.71 63.6567 147.968 63.6567C128.226 63.6567 112.222 81.6178 112.222 103.774C112.222 125.93 128.226 143.891 147.968 143.891Z" fill="#C9967A"/>
<path d="M179.272 74.3606C179.272 74.3606 188.621 54.302 168.052 52.4785C168.052 52.4785 150.518 34.6269 132.645 49.215C132.645 49.215 122.896 49.215 117.565 61.596C117.565 61.596 109.897 58.3325 108.212 67.0666C108.212 67.0666 102.602 85.3017 108.212 101.713C113.823 118.125 115.686 119.948 115.686 119.948C115.686 119.948 106.467 85.5406 128.908 83.717C151.348 81.8935 176.459 66.1548 178.329 86.2134C180.2 106.272 183.014 111.214 183.014 111.214C183.014 111.214 200.776 82.5665 179.272 74.3606Z" fill="#2F2E41"/>
<path d="M240.435 202.641L240.32 203.322L239.027 210.979L230.097 263.943L229.568 267.061L228.459 273.655L226.942 282.65L223.577 302.585L222.615 308.298L222.254 310.442L222.128 311.193L221.129 317.106L220.825 318.891L218.387 339.166L216.258 356.835L223.384 364.832L219.135 369.6L216.347 387.527L216.352 387.568H102.541C97.9367 384.221 93.3988 380.77 88.9272 377.216L89.8637 369.347C89.8637 369.347 93.0866 355.296 91.7315 353.617C90.3817 351.938 87.4203 348.937 87.4203 348.937L91.1508 339.166L91.6687 337.81L90.8002 317.593L90.7793 317.106L90.4916 310.442L90.4549 309.584L90.3974 308.298L89.2934 282.65L89.2725 282.228L88.9377 274.453L88.6237 267.061L88.4877 263.943L87.1431 232.746L86.2328 211.561L85.4375 193.117L88.6342 191.902L122.825 178.86L136.988 158.198L166.465 158.444L180.895 158.568L204.973 183.628L210.451 186.564L210.492 186.588L214.422 188.696L224.383 194.033L234.915 199.682L240.32 202.577L240.435 202.641Z" fill="#CACACA"/>
<path d="M140.797 327.382C138.637 328.322 136.32 328.718 134.009 328.543C131.697 328.369 129.448 327.627 127.42 326.372C125.391 325.116 123.633 323.376 122.268 321.275C120.904 319.175 119.966 316.763 119.522 314.212L63.7705 305.335L83.1512 280.731L133.122 292.933C136.991 292.379 140.907 293.437 144.127 295.907C147.347 298.376 149.648 302.085 150.594 306.332C151.54 310.578 151.065 315.067 149.26 318.946C147.454 322.826 144.443 325.828 140.797 327.382Z" fill="#C9967A"/>
<path d="M115.94 282.65C114.907 281.181 113.445 280.168 111.812 279.791L88.9373 274.453L86.5882 273.907C85.2229 273.588 83.9333 272.948 82.8035 272.03C81.6738 271.112 80.7295 269.937 80.0324 268.582C79.3093 267.158 78.8719 265.575 78.7506 263.943C78.6416 262.459 78.7999 260.965 79.2162 259.551L87.1427 232.746L92.2857 215.354C92.909 213.256 93.2769 211.074 93.3792 208.865C93.6658 202.755 91.9811 196.732 88.6338 191.902C85.691 187.656 81.6093 184.585 76.9918 183.143C72.3744 181.701 67.466 181.964 62.9919 183.893C62.8611 183.946 62.725 184.004 62.5942 184.063C59.3856 185.501 56.5189 187.756 54.2207 190.652C51.9224 193.547 50.2557 197.002 49.3521 200.745L43.7643 223.557L32.2383 270.584C31.0845 275.296 30.8514 280.231 31.5549 285.054C32.2585 289.876 33.8821 294.471 36.3147 298.523C38.7472 302.576 41.9312 305.991 45.6488 308.534C49.3664 311.078 53.5298 312.69 57.854 313.26L90.7998 317.593L106.046 319.602C107.809 319.839 109.587 319.323 111.026 318.155C112.465 316.988 113.459 315.255 113.81 313.301C113.835 313.195 113.854 313.087 113.868 312.978L114.234 310.442L117.336 289.08L117.368 288.863C117.529 287.773 117.486 286.657 117.24 285.587C116.994 284.517 116.551 283.517 115.94 282.65Z" fill="#CACACA"/>
<path d="M176.309 328.067C178.565 328.655 180.909 328.681 183.176 328.142C185.442 327.603 187.575 326.514 189.426 324.949C191.276 323.385 192.798 321.385 193.885 319.089C194.972 316.793 195.597 314.258 195.717 311.661L249.795 294.05L227.517 272.759L179.578 292.747C175.678 292.811 171.935 294.478 169.057 297.433C166.18 300.387 164.368 304.424 163.965 308.778C163.562 313.131 164.596 317.5 166.871 321.055C169.146 324.61 172.504 327.105 176.309 328.067Z" fill="#C9967A"/>
<path d="M276.645 254.654L250.925 188.22C248.821 182.766 245.064 178.325 240.319 175.684C238.853 174.874 237.313 174.244 235.726 173.805C235.48 173.734 235.234 173.67 234.988 173.617C231.623 172.793 228.132 172.865 224.796 173.828C221.747 174.708 218.897 176.298 216.432 178.497C213.967 180.695 211.943 183.452 210.492 186.588C210.476 186.614 210.462 186.641 210.45 186.67C208.829 190.19 207.967 194.088 207.933 198.05C207.899 202.012 208.695 205.928 210.256 209.482L210.576 210.198L228.751 251.166C229.372 252.567 229.722 254.099 229.778 255.662C229.833 257.226 229.594 258.784 229.075 260.237C228.557 261.689 227.77 263.001 226.768 264.088C225.765 265.175 224.569 266.012 223.258 266.544L221.981 267.061L199.023 276.368C197.301 277.057 195.884 278.471 195.071 280.309C194.258 282.148 194.112 284.269 194.665 286.226L194.723 286.432L201.158 309.543C201.189 309.649 201.221 309.755 201.257 309.86C201.314 310.06 201.384 310.254 201.467 310.442C202.151 312.163 203.359 313.554 204.876 314.365C206.392 315.175 208.116 315.352 209.738 314.863L222.128 311.193L224.655 310.442L256.648 300.959C260.858 299.71 264.778 297.456 268.139 294.349C271.5 291.243 274.223 287.358 276.122 282.96C278.021 278.563 279.051 273.757 279.141 268.871C279.232 263.985 278.38 259.136 276.645 254.654Z" fill="#CACACA"/>
<path d="M23.4907 310.442C30.9047 320.59 38.9004 330.186 47.427 339.166H283.897C286.175 339.17 288.359 340.188 289.97 341.997C291.58 343.805 292.486 346.257 292.488 348.814L292.828 416.063C307.375 408.563 320.999 398.985 333.36 387.568C336.792 384.403 340.118 381.101 343.338 377.662C345.446 375.419 347.504 373.121 349.511 370.768C364.56 353.174 376.747 332.756 385.518 310.442H23.4907Z" fill="#3F3D56"/>
<path d="M349.511 370.768C347.507 373.123 345.449 375.421 343.337 377.662H293V370.768H349.511Z" fill="white"/>
<path d="M239.964 150.288C239.715 149.773 239.347 149.343 238.899 149.043C238.45 148.744 237.938 148.586 237.416 148.586H65.8907C65.1217 148.588 64.3848 148.932 63.8415 149.543C63.2982 150.154 62.9928 150.981 62.9922 151.844V267.061H240.32V151.844C240.322 151.3 240.2 150.764 239.964 150.288Z" fill="#3F3D56"/>
<path d="M62.8369 263.941V278.159C62.8369 278.749 62.9404 279.332 63.1413 279.877C63.3423 280.421 63.6369 280.916 64.0083 281.333C64.3796 281.75 64.8205 282.08 65.3057 282.306C65.7909 282.532 66.311 282.648 66.8362 282.648H132.287V310.707H131.417C131.349 310.707 131.281 310.722 131.218 310.751C131.155 310.781 131.098 310.824 131.05 310.878C131.001 310.932 130.963 310.996 130.937 311.067C130.911 311.138 130.898 311.213 130.898 311.29V313.242C130.898 313.318 130.911 313.394 130.937 313.465C130.963 313.536 131.001 313.6 131.05 313.654C131.098 313.708 131.155 313.751 131.218 313.78C131.281 313.81 131.349 313.825 131.417 313.825H172.048C172.116 313.825 172.184 313.81 172.247 313.78C172.31 313.751 172.367 313.708 172.415 313.654C172.463 313.6 172.502 313.536 172.528 313.465C172.554 313.394 172.567 313.318 172.567 313.242V311.29C172.567 311.213 172.554 311.138 172.528 311.067C172.502 310.996 172.463 310.932 172.415 310.878C172.367 310.824 172.31 310.781 172.247 310.751C172.184 310.722 172.116 310.707 172.048 310.707H171.178V282.648H236.629C237.154 282.648 237.674 282.532 238.159 282.306C238.644 282.08 239.085 281.75 239.457 281.333C239.828 280.916 240.123 280.421 240.324 279.877C240.525 279.332 240.628 278.749 240.628 278.159V263.941H62.8369Z" fill="#3F3D56"/>
<path d="M149.584 223.134C158.63 223.134 165.964 214.904 165.964 204.752C165.964 194.599 158.63 186.369 149.584 186.369C140.538 186.369 133.205 194.599 133.205 204.752C133.205 214.904 140.538 223.134 149.584 223.134Z" fill="#5D71D3"/>
<path d="M191.317 101.582H188.701C188.701 79.3864 169.128 64.842 149.383 64.8303C146.511 64.8208 143.645 65.1336 140.828 65.7639C137.658 66.4744 134.367 67.3258 131.133 68.4355C118.383 72.8218 106.559 81.3006 106.559 101.582C106.556 105.521 107.003 109.444 107.888 113.255L105.356 113.995C104.416 109.941 103.942 105.77 103.943 101.582C103.943 83.8607 110.425 71.6885 121.622 64.431C127.508 60.6143 134.691 58.154 142.921 56.9562C146.346 56.4448 149.808 56.3268 153.254 56.6039C175.961 58.4358 191.317 77.9772 191.317 101.582Z" fill="#5D71D3"/>
<path d="M195.675 103.208L194.644 94.659C194.39 92.4999 193.464 90.5114 192.028 89.0455C191.107 88.0899 190.004 87.3818 188.803 86.9749C187.602 86.568 186.335 86.4729 185.096 86.6968L183.459 86.9493C183.01 87.0155 182.578 87.1809 182.188 87.4359C181.797 87.6909 181.455 88.0305 181.183 88.4349C180.907 88.8379 180.706 89.2981 180.59 89.7889C180.474 90.2797 180.446 90.7914 180.508 91.2944L182.888 110.988C182.986 111.791 183.307 112.539 183.805 113.126C184.302 113.713 184.952 114.109 185.661 114.259C185.871 114.306 186.085 114.33 186.299 114.329C186.453 114.329 186.607 114.318 186.76 114.294L188.591 114.018C189.708 113.852 190.782 113.431 191.748 112.782C192.715 112.133 193.552 111.269 194.21 110.243C194.352 110.02 194.488 109.791 194.613 109.556C195.594 107.634 195.968 105.398 195.675 103.208Z" fill="#5D71D3"/>
<path d="M182.402 87.3075C181.921 87.5694 181.503 87.9559 181.183 88.4349C180.907 88.8379 180.706 89.2981 180.59 89.7889C180.474 90.2797 180.446 90.7914 180.508 91.2944L182.888 110.988C182.986 111.791 183.307 112.539 183.805 113.126C184.302 113.713 184.952 114.109 185.661 114.259L182.402 87.3075Z" fill="white"/>
<path d="M195.675 103.208L194.644 94.6589C194.39 92.4999 193.463 90.5114 192.028 89.0455L194.398 108.64C194.434 108.954 194.506 109.262 194.613 109.556C195.594 107.634 195.968 105.398 195.675 103.208Z" fill="#3F3D56"/>
<path d="M187.529 109.368C188.245 109.259 188.605 107.347 188.333 105.098C188.061 102.849 187.26 101.113 186.545 101.222C185.829 101.331 185.469 103.243 185.741 105.493C186.013 107.742 186.813 109.477 187.529 109.368Z" fill="#3F3D56"/>
<path d="M185.959 98.799C186.675 98.69 187.035 96.7781 186.763 94.5287C186.491 92.2793 185.691 90.5441 184.975 90.6531C184.259 90.7621 183.899 92.6739 184.171 94.9234C184.443 97.1728 185.244 98.908 185.959 98.799Z" fill="#3F3D56"/>
<path d="M195.9 102.909C196.616 102.8 196.976 100.888 196.704 98.639C196.432 96.3895 195.632 94.6544 194.916 94.7633C194.2 94.8723 193.84 96.7842 194.112 99.0336C194.384 101.283 195.185 103.018 195.9 102.909Z" fill="#3F3D56"/>
<path d="M149.382 64.8302C146.51 64.8208 143.645 65.1336 140.828 65.7638C137.658 66.4743 134.367 67.3257 131.133 68.4355C126.084 68.1595 122.37 66.6916 121.622 64.4309C127.508 60.6143 134.691 58.154 142.921 56.9561C146.346 56.4448 149.808 56.3268 153.254 56.6038C153.619 56.8438 153.934 57.1678 154.18 57.5544C154.425 57.941 154.594 58.3815 154.677 58.8469C154.923 60.8903 152.846 63.0628 149.382 64.8302Z" fill="#3F3D56"/>
<path d="M115.981 121.957L111.953 103.161C111.809 102.483 111.49 101.868 111.036 101.393C110.582 100.917 110.012 100.603 109.4 100.49C109.227 100.459 109.052 100.444 108.876 100.443C108.63 100.444 108.384 100.477 108.144 100.543L106.585 100.965C104.577 101.51 102.845 102.927 101.767 104.904C100.689 106.881 100.354 109.257 100.835 111.511L102.64 119.943C103.052 121.928 104.034 123.706 105.434 125.004C105.661 125.21 105.898 125.4 106.145 125.574C107.022 126.191 108.001 126.604 109.022 126.79C110.044 126.975 111.089 126.929 112.094 126.654L113.648 126.232C114.059 126.124 114.445 125.922 114.783 125.639C115.286 125.227 115.668 124.658 115.881 124.002C116.095 123.347 116.13 122.635 115.981 121.957Z" fill="#5D71D3"/>
<path d="M107.536 118.46C108.238 118.27 108.424 116.327 107.951 114.12C107.477 111.913 106.524 110.278 105.822 110.467C105.12 110.657 104.934 112.6 105.407 114.807C105.88 117.014 106.833 118.649 107.536 118.46Z" fill="#3F3D56"/>
<path d="M102.304 120.221C103.006 120.032 103.192 118.089 102.719 115.882C102.245 113.675 101.292 112.039 100.59 112.229C99.8877 112.419 99.702 114.362 100.175 116.569C100.648 118.776 101.601 120.411 102.304 120.221Z" fill="#3F3D56"/>
<path d="M116.238 121.886L112.209 103.091C112.052 102.357 111.706 101.692 111.214 101.178C110.721 100.664 110.105 100.325 109.441 100.202L114.94 125.873C115.483 125.427 115.896 124.81 116.127 124.101C116.358 123.391 116.397 122.621 116.238 121.886Z" fill="white"/>
<path d="M101.746 107.788C101.634 107.266 101.426 106.775 101.133 106.35C100.567 107.996 100.463 109.797 100.835 111.511L102.64 119.943C103.052 121.928 104.034 123.706 105.434 125.004L101.746 107.788Z" fill="#3F3D56"/>
</g>
<defs>
<clipPath id="clip0_159_385">
<rect width="445" height="435" fill="white"/>
</clipPath>
</defs>
</svg>
